<?xml version="1.0" encoding="utf-8"?>
<svg width="449" height="434" viewBox="0 0 449 434" fill="none" xmlns="http://www.w3.org/2000/svg">
<path d="M447 217C447 340.489 352.41 432 224.063 432C95.7167 432 2 340.489 2 217C2 93.5112 95.9222 2 224.063 2C352.204 2 447 93.5112 447 217Z" stroke="#414141" stroke-width="4" stroke-miterlimit="10"/>
<path d="M224.132 30.3294C260.016 30.3294 292.909 38.5936 321.048 53.4105C351.245 69.3031 375.854 92.7265 392.669 121.529C408.748 149.06 417.719 181.481 417.67 216.934C417.572 270.773 396.639 317.62 361.54 350.774C327.225 383.196 279.477 402.56 224.573 402.658C188.689 402.756 155.844 394.589 127.804 379.87C97.6556 364.027 73.0957 340.603 56.2812 311.801C40.2511 284.319 31.3291 251.947 31.3291 216.543C31.3291 190.381 36.1823 165.833 45.2513 143.73C54.8105 120.257 69.0759 99.5236 87.0179 82.4085C104.764 65.4889 126.186 52.139 150.403 43.1903C172.855 34.8283 197.66 30.3294 224.132 30.3294Z" stroke="#706F6E" stroke-width="4" stroke-miterlimit="10"/>
<path d="M224.153 57.6471C254.618 57.6471 282.59 64.7305 306.5 77.416C332.118 91.0274 353.028 111.074 367.291 135.751C380.954 159.316 388.478 187.048 388.339 217.326C388.201 263.068 370.43 302.884 340.75 331.079C311.716 358.672 271.327 375.2 224.984 375.339C194.519 375.478 166.593 368.58 142.729 356.033C117.065 342.514 96.1551 322.56 81.8921 297.93C68.2292 274.457 60.6592 246.772 60.6592 216.539C60.6592 194.224 64.7673 173.298 72.4296 154.408C80.5535 134.408 92.6471 116.676 107.879 102.046C122.973 87.6014 141.114 76.2123 161.654 68.5732C180.625 61.4897 201.72 57.6471 224.153 57.6471Z" stroke="white" stroke-width="4" stroke-miterlimit="10"/>
<path d="M364.068 217C364.068 294.028 304.737 351.059 224.252 351.059C143.767 351.059 84.9316 294.028 84.9316 217C84.9316 139.972 143.822 82.9412 224.252 82.9412C304.682 82.9412 364.068 139.972 364.068 217Z" fill="#0F35F7"/>
</svg>
